<svg class="svg-icon" style="width: 200vh; height: 100vh;vertical-align: middle;fill: currentColor;overflow: hidden;" viewBox="0 0 1024 1024" version="1.1" xmlns="http://www.w3.org/2000/svg"><path d="M838.4 208H185.6a59.2 59.2 0 0 0-59.2 59.2v489.6a59.2 59.2 0 0 0 59.2 59.2h652.8a59.2 59.2 0 0 0 59.2-59.2V267.2a59.2 59.2 0 0 0-59.2-59.2z m-652.8 32h652.8a27.2 27.2 0 0 1 27.2 27.2V304H158.4v-36.8a27.2 27.2 0 0 1 27.2-27.2z m652.8 544H185.6a27.2 27.2 0 0 1-27.2-27.2V336h707.2v420.8a27.2 27.2 0 0 1-27.2 27.2z" fill="#0084FF" /><path d="M688 256h32v32h-32zM752 256h32v32h-32zM816 256h32v32h-32zM393.6 561.6h35.2v-20.8h-35.2v-19.2h41.6v-20.8H368v104h68.8v-20.8h-43.2v-22.4zM552 534.4c0-25.6-19.2-33.6-41.6-33.6h-36.8v104h25.6v-36.8h12.8l19.2 36.8H560l-24-41.6a30.4 30.4 0 0 0 16-28.8z m-43.2 14.4h-11.2v-28.8h11.2c11.2 0 17.6 3.2 17.6 12.8s-4.8 16-16 16zM627.2 500.8h-36.8v104h25.6v-33.6h12.8c22.4 0 41.6-11.2 41.6-35.2s-20.8-35.2-43.2-35.2z m0 49.6h-11.2v-30.4h9.6c12.8 0 19.2 3.2 19.2 14.4s-6.4 16-19.2 16z" fill="#0084FF" /><path d="M782.4 513.6a16 16 0 1 0 0-32h-43.2a59.2 59.2 0 0 0-56-43.2h-41.6v-40a16 16 0 1 0-32 0v41.6h-24v-41.6a16 16 0 0 0-32 0v41.6H528v-41.6a16 16 0 0 0-32 0v41.6h-25.6v-41.6a16 16 0 0 0-32 0v41.6h-24v-41.6a16 16 0 0 0-32 0v41.6h-41.6a59.2 59.2 0 0 0-56 43.2h-57.6a16 16 0 0 0 0 32h54.4v25.6h-54.4a16 16 0 0 0 0 32h54.4v25.6h-54.4a16 16 0 0 0 0 32h57.6a59.2 59.2 0 0 0 56 43.2h41.6v41.6a16 16 0 0 0 32 0v-44.8h25.6v41.6a16 16 0 0 0 32 0v-41.6H496v41.6a16 16 0 0 0 32 0v-41.6h25.6v41.6a16 16 0 0 0 32 0v-41.6h25.6v41.6a16 16 0 0 0 32 0v-41.6h41.6a59.2 59.2 0 0 0 56-43.2H784a16 16 0 0 0 0-32h-43.2v-24h41.6a16 16 0 0 0 0-32h-41.6v-25.6z m-99.2 124.8H340.8a27.2 27.2 0 0 1-27.2-27.2v-113.6a27.2 27.2 0 0 1 27.2-27.2h342.4a27.2 27.2 0 0 1 27.2 27.2v113.6a27.2 27.2 0 0 1-27.2 27.2z" fill="#0084FF" /></svg>