<svg version="1.1" id="Layer_1" xmlns="http://www.w3.org/2000/svg" xmlns:xlink="http://www.w3.org/1999/xlink" x="0px" y="0px"
	 width="100%" viewBox="0 0 360 360" enable-background="new 0 0 360 360" xml:space="preserve">
<path fill="none" opacity="1.000000" stroke="none" 
	d="
M171.000000,361.000000 
	C114.019608,361.000000 57.539211,361.000000 1.029410,361.000000 
	C1.029410,241.061249 1.029410,121.122498 1.029410,1.091873 
	C120.897041,1.091873 240.794174,1.091873 360.845642,1.091873 
	C360.845642,120.999847 360.845642,240.999908 360.845642,361.000000 
	C297.789185,361.000000 234.644592,361.000000 171.000000,361.000000 
M150.440918,118.345337 
	C155.945084,122.005424 164.191284,119.856049 168.070618,115.095367 
	C168.992035,113.964600 171.556519,113.151642 172.922714,113.585617 
	C178.132172,115.240410 183.376526,117.048859 188.213837,119.559151 
	C199.721207,125.530815 208.575073,134.382065 215.199051,145.574387 
	C216.212936,147.287491 218.544266,148.739319 220.512787,149.160873 
	C221.574417,149.388245 224.108353,147.306076 224.283295,146.033005 
	C224.542465,144.146866 223.676422,141.825500 222.631714,140.083969 
	C211.462402,121.464783 195.213547,109.612999 174.279083,103.992729 
	C172.387955,103.485016 170.133774,102.362450 169.143448,100.821526 
	C165.652710,95.389984 160.850861,93.182396 154.683121,94.143456 
	C149.401611,94.966431 146.072098,98.449936 144.635620,103.449196 
	C142.932175,109.377602 144.858109,114.251884 150.440918,118.345337 
M227.772629,183.967087 
	C231.227036,173.193298 227.184311,164.871536 217.000763,163.657654 
	C209.671906,162.784058 202.155045,163.487549 194.463104,163.487549 
	C194.463104,177.352982 194.463104,190.901688 194.463104,204.589752 
	C197.319000,204.589752 199.858276,204.589752 202.936646,204.589752 
	C202.936646,200.150192 202.936646,196.063492 202.936646,192.064987 
	C206.981781,190.783585 209.917130,191.328918 212.270462,194.457367 
	C213.866226,196.578735 216.010406,198.318970 217.426590,200.537750 
	C220.835724,205.879044 225.611221,205.402191 231.532349,204.451843 
	C227.298615,199.503418 223.565948,195.140640 220.149597,191.147568 
	C222.814209,188.772461 225.120361,186.716858 227.772629,183.967087 
M141.064285,192.487030 
	C141.064285,196.561737 141.064285,200.636444 141.064285,204.620087 
	C151.988190,204.620087 162.049057,204.620087 172.043304,204.620087 
	C172.043304,201.743469 172.043304,199.217606 172.043304,196.417709 
	C166.426392,196.417709 161.279617,196.423401 156.132874,196.416367 
	C148.895126,196.406464 148.721329,196.172012 150.387329,187.967682 
	C157.278503,187.967682 164.318573,187.967682 171.410812,187.967682 
	C171.410812,185.066498 171.410812,182.826004 171.410812,179.942963 
	C164.049271,179.942963 156.996872,179.942963 150.048645,179.942963 
	C149.137192,171.684143 149.137192,171.683228 156.434494,171.677399 
	C159.595413,171.674866 162.756332,171.675278 165.917252,171.677353 
	C173.260529,171.682190 173.558746,171.279037 171.802124,163.216232 
	C166.764755,163.216232 161.639755,163.216232 156.514755,163.216232 
	C151.440491,163.216232 146.366226,163.216232 141.064346,163.216232 
	C141.064346,173.210632 141.064346,182.350464 141.064285,192.487030 
M100.784126,125.287903 
	C98.656540,127.619087 96.691925,130.134460 94.341652,132.213974 
	C92.877708,133.509277 90.919754,134.651886 89.029022,134.984314 
	C82.989479,136.046158 78.659119,139.839981 77.397247,145.777924 
	C76.256340,151.146591 78.928276,156.944824 83.848343,159.777145 
	C88.697235,162.568481 95.056229,161.890320 99.146629,158.145615 
	C103.644089,154.028259 105.184380,148.216034 102.261765,142.767303 
	C100.571838,139.616714 101.616310,137.917725 103.520416,135.848129 
	C110.834061,127.898949 119.355919,121.718628 129.487595,117.824989 
	C132.449310,116.686798 134.502777,114.646690 133.076736,111.320465 
	C131.723938,108.165100 128.899368,107.442749 126.016083,109.207283 
	C117.706131,114.292847 109.514519,119.571762 100.784126,125.287903 
M132.059189,246.700623 
	C124.960541,242.166153 117.775368,237.759262 110.806557,233.033340 
	C108.087273,231.189224 105.441536,229.518524 102.953148,232.466339 
	C100.548088,235.315430 102.162361,237.923615 104.638260,240.206680 
	C113.983658,248.824127 124.811440,254.640289 137.001083,258.183624 
	C139.276932,258.845184 141.098358,260.997742 143.197311,262.357483 
	C146.171936,264.284424 149.000641,267.075958 152.263809,267.784698 
	C159.005661,269.248962 164.802399,265.176971 166.904480,258.687347 
	C168.638229,253.334839 165.921387,246.397980 160.974167,243.545609 
	C155.540909,240.413025 148.350479,241.370605 144.271729,246.434662 
	C142.054062,249.188080 139.978409,249.616516 137.028168,248.414001 
	C135.647064,247.851074 134.207245,247.432175 132.059189,246.700623 
M279.872498,189.425293 
	C288.347504,180.594299 285.947845,166.574738 274.805695,164.323883 
	C266.932159,162.733337 258.478180,164.016037 250.268112,164.016037 
	C250.268112,177.562622 250.268112,190.981293 250.268112,204.587036 
	C253.070938,204.587036 255.596863,204.587036 258.622009,204.587036 
	C258.622009,200.657974 258.622009,197.074707 258.622009,194.429443 
	C265.971619,192.816727 272.633575,191.354889 279.872498,189.425293 
M78.526054,195.969727 
	C81.100899,203.136536 83.573013,210.342743 86.298264,217.451889 
	C87.483170,220.542877 89.840446,222.631760 93.322327,220.960464 
	C96.962524,219.213135 96.169273,216.283096 94.622757,213.337585 
	C88.697723,202.052658 85.976921,190.033081 86.684166,177.293610 
	C86.874390,173.867096 86.054100,171.050827 82.255714,170.815689 
	C78.386940,170.576157 77.077919,173.405151 77.214073,176.766113 
	C77.462387,182.895645 77.949219,189.015518 78.526054,195.969727 
M180.602600,249.075592 
	C180.255402,251.270630 179.908188,253.465683 179.560989,255.660721 
	C181.810547,255.950607 184.562576,257.225189 186.230057,256.374359 
	C199.390686,249.658905 209.774582,239.849472 217.249084,227.032364 
	C218.847687,224.291122 219.444244,221.492294 216.368408,219.636917 
	C213.137863,217.688217 210.749298,219.374161 209.038422,222.372284 
	C202.428421,233.955627 192.909317,242.480087 180.602600,249.075592 
M142.544678,137.083679 
	C141.130859,136.620941 139.745728,135.906601 138.297974,135.741516 
	C133.510315,135.195648 126.059044,141.915619 127.554390,145.722855 
	C129.048569,149.527069 130.896362,153.471695 136.325821,153.521088 
	C141.097473,153.564484 144.558929,151.860229 146.014618,147.383987 
	C146.940201,144.537811 148.586197,144.008514 151.172684,143.909927 
	C161.626648,143.511505 170.807922,146.634293 178.843521,153.325668 
	C180.456329,154.668671 182.324738,157.648148 184.406235,154.594330 
	C185.031937,153.676361 183.449966,150.285675 182.002762,149.079376 
	C172.387634,141.064743 161.345413,137.327759 148.696106,138.697311 
	C146.923965,138.889206 145.028473,137.941879 142.544678,137.083679 
M180.751007,221.430939 
	C180.554779,216.394379 177.849899,213.426376 173.033966,212.437469 
	C168.849640,211.578293 165.242554,213.602158 164.090836,217.136475 
	C162.527008,221.935379 159.249283,222.099854 155.637253,221.828430 
	C151.687881,221.531677 147.800507,220.467407 143.852783,220.063889 
	C142.139465,219.888779 140.342789,220.529388 138.583969,220.799500 
	C139.793060,222.264786 140.829636,224.782135 142.241043,225.013580 
	C148.414215,226.025848 154.701172,226.327866 160.935181,226.996155 
	C162.642166,227.179169 164.536789,227.353149 165.955276,228.191330 
	C172.915451,232.304184 178.275024,230.205811 180.751007,221.430939 
M115.574448,160.119995 
	C112.454865,165.325562 111.534996,171.684418 105.248550,175.204727 
	C101.509865,177.298340 102.328125,184.107269 105.537811,187.264496 
	C108.804619,190.477951 113.743500,190.725922 117.383987,187.859268 
	C121.213379,184.843903 122.439560,179.589279 119.106689,175.969543 
	C116.016426,172.613327 116.709717,169.718796 118.413216,166.623169 
	C120.323608,163.151611 122.724579,159.952988 124.836594,156.588211 
	C126.007431,154.722885 127.024040,152.760757 128.110168,150.842255 
	C127.805756,150.459534 127.501335,150.076813 127.196922,149.694077 
	C125.373779,150.463089 123.152344,150.815994 121.816727,152.094360 
	C119.564903,154.249664 117.874779,156.991821 115.574448,160.119995 
M126.502945,209.991165 
	C123.613243,205.578537 120.835480,201.085815 117.768303,196.800201 
	C116.798943,195.445770 115.055695,194.645218 113.666618,193.591171 
	C113.326027,195.320663 112.123428,197.557144 112.791649,198.693314 
	C115.957207,204.075638 119.358894,209.377670 123.257927,214.242249 
	C124.903526,216.295349 127.553345,220.706268 130.714523,217.137863 
	C133.762207,213.697571 128.552353,212.627594 126.502945,209.991165 
z"/>
<path fill="#4A9DFB" opacity="1.000000" stroke="none" 
	d="
M150.113846,118.143799 
	C144.858109,114.251884 142.932175,109.377602 144.635620,103.449196 
	C146.072098,98.449936 149.401611,94.966431 154.683121,94.143456 
	C160.850861,93.182396 165.652710,95.389984 169.143448,100.821526 
	C170.133774,102.362450 172.387955,103.485016 174.279083,103.992729 
	C195.213547,109.612999 211.462402,121.464783 222.631714,140.083969 
	C223.676422,141.825500 224.542465,144.146866 224.283295,146.033005 
	C224.108353,147.306076 221.574417,149.388245 220.512787,149.160873 
	C218.544266,148.739319 216.212936,147.287491 215.199051,145.574387 
	C208.575073,134.382065 199.721207,125.530815 188.213837,119.559151 
	C183.376526,117.048859 178.132172,115.240410 172.922714,113.585617 
	C171.556519,113.151642 168.992035,113.964600 168.070618,115.095367 
	C164.191284,119.856049 155.945084,122.005424 150.113846,118.143799 
M155.793808,101.953491 
	C154.555756,104.022942 152.714966,105.990471 152.340317,108.205925 
	C152.159805,109.273392 154.529938,111.498100 156.117569,111.985527 
	C159.291885,112.960098 161.916534,111.281105 162.410355,108.014626 
	C163.028885,103.923103 160.674881,101.873764 155.793808,101.953491 
z"/>
<path fill="#4D9FFB" opacity="1.000000" stroke="none" 
	d="
M227.599564,184.314178 
	C225.120361,186.716858 222.814209,188.772461 220.149597,191.147568 
	C223.565948,195.140640 227.298615,199.503418 231.532349,204.451843 
	C225.611221,205.402191 220.835724,205.879044 217.426590,200.537750 
	C216.010406,198.318970 213.866226,196.578735 212.270462,194.457367 
	C209.917130,191.328918 206.981781,190.783585 202.936646,192.064987 
	C202.936646,196.063492 202.936646,200.150192 202.936646,204.589752 
	C199.858276,204.589752 197.319000,204.589752 194.463104,204.589752 
	C194.463104,190.901688 194.463104,177.352982 194.463104,163.487549 
	C202.155045,163.487549 209.671906,162.784058 217.000763,163.657654 
	C227.184311,164.871536 231.227036,173.193298 227.599564,184.314178 
M220.766388,177.500870 
	C220.009048,171.078644 215.563278,170.224564 203.139008,171.725128 
	C203.139008,175.558624 203.139008,179.423965 203.139008,183.707230 
	C206.965775,183.707230 210.433609,183.820969 213.890533,183.675446 
	C217.387680,183.528214 219.929092,181.944611 220.766388,177.500870 
z"/>
<path fill="#4B9EFC" opacity="1.000000" stroke="none" 
	d="
M141.064316,191.988663 
	C141.064346,182.350464 141.064346,173.210632 141.064346,163.216232 
	C146.366226,163.216232 151.440491,163.216232 156.514755,163.216232 
	C161.639755,163.216232 166.764755,163.216232 171.802124,163.216232 
	C173.558746,171.279037 173.260529,171.682190 165.917252,171.677353 
	C162.756332,171.675278 159.595413,171.674866 156.434494,171.677399 
	C149.137192,171.683228 149.137192,171.684143 150.048645,179.942963 
	C156.996872,179.942963 164.049271,179.942963 171.410812,179.942963 
	C171.410812,182.826004 171.410812,185.066498 171.410812,187.967682 
	C164.318573,187.967682 157.278503,187.967682 150.387329,187.967682 
	C148.721329,196.172012 148.895126,196.406464 156.132874,196.416367 
	C161.279617,196.423401 166.426392,196.417709 172.043304,196.417709 
	C172.043304,199.217606 172.043304,201.743469 172.043304,204.620087 
	C162.049057,204.620087 151.988190,204.620087 141.064285,204.620087 
	C141.064285,200.636444 141.064285,196.561737 141.064316,191.988663 
z"/>
<path fill="#4A9DFB" opacity="1.000000" stroke="none" 
	d="
M101.030273,125.031311 
	C109.514519,119.571762 117.706131,114.292847 126.016083,109.207283 
	C128.899368,107.442749 131.723938,108.165100 133.076736,111.320465 
	C134.502777,114.646690 132.449310,116.686798 129.487595,117.824989 
	C119.355919,121.718628 110.834061,127.898949 103.520416,135.848129 
	C101.616310,137.917725 100.571838,139.616714 102.261765,142.767303 
	C105.184380,148.216034 103.644089,154.028259 99.146629,158.145615 
	C95.056229,161.890320 88.697235,162.568481 83.848343,159.777145 
	C78.928276,156.944824 76.256340,151.146591 77.397247,145.777924 
	C78.659119,139.839981 82.989479,136.046158 89.029022,134.984314 
	C90.919754,134.651886 92.877708,133.509277 94.341652,132.213974 
	C96.691925,130.134460 98.656540,127.619087 101.030273,125.031311 
M94.943169,145.579651 
	C92.849312,142.618759 89.869270,141.731720 87.338089,144.172653 
	C85.947769,145.513412 85.088936,148.990021 85.875687,150.557205 
	C86.659813,152.119202 89.988991,153.518173 91.865990,153.170883 
	C95.161713,152.561142 96.623344,149.824310 94.943169,145.579651 
z"/>
<path fill="#4A9DFB" opacity="1.000000" stroke="none" 
	d="
M132.426605,246.824310 
	C134.207245,247.432175 135.647064,247.851074 137.028168,248.414001 
	C139.978409,249.616516 142.054062,249.188080 144.271729,246.434662 
	C148.350479,241.370605 155.540909,240.413025 160.974167,243.545609 
	C165.921387,246.397980 168.638229,253.334839 166.904480,258.687347 
	C164.802399,265.176971 159.005661,269.248962 152.263809,267.784698 
	C149.000641,267.075958 146.171936,264.284424 143.197311,262.357483 
	C141.098358,260.997742 139.276932,258.845184 137.001083,258.183624 
	C124.811440,254.640289 113.983658,248.824127 104.638260,240.206680 
	C102.162361,237.923615 100.548088,235.315430 102.953148,232.466339 
	C105.441536,229.518524 108.087273,231.189224 110.806557,233.033340 
	C117.775368,237.759262 124.960541,242.166153 132.426605,246.824310 
M156.097870,250.029266 
	C152.750534,249.278320 149.716980,249.997299 149.186752,253.636063 
	C148.920517,255.463211 150.215347,258.687775 151.645325,259.292969 
	C153.392990,260.032623 156.802582,259.434570 158.101364,258.080048 
	C160.447098,255.633713 159.698822,252.563980 156.097870,250.029266 
z"/>
<path fill="#4A9DFC" opacity="1.000000" stroke="none" 
	d="
M279.584015,189.659180 
	C272.633575,191.354889 265.971619,192.816727 258.622009,194.429443 
	C258.622009,197.074707 258.622009,200.657974 258.622009,204.587036 
	C255.596863,204.587036 253.070938,204.587036 250.268112,204.587036 
	C250.268112,190.981293 250.268112,177.562622 250.268112,164.016037 
	C258.478180,164.016037 266.932159,162.733337 274.805695,164.323883 
	C285.947845,166.574738 288.347504,180.594299 279.584015,189.659180 
M258.240723,183.148453 
	C258.854584,183.784332 259.445679,184.941864 260.086090,184.969849 
	C263.736420,185.129395 267.630676,185.772339 270.976105,184.740479 
	C273.259125,184.036316 276.100220,180.968384 276.272278,178.768112 
	C276.444031,176.571411 274.010986,172.684174 271.995087,172.117783 
	C267.996674,170.994370 263.317841,170.956802 259.326385,172.009872 
	C258.219299,172.301956 258.537628,178.008118 258.211426,181.231277 
	C258.178101,181.560486 258.209595,181.896255 258.240723,183.148453 
z"/>
<path fill="#4B9EFB" opacity="1.000000" stroke="none" 
	d="
M78.431297,195.554565 
	C77.949219,189.015518 77.462387,182.895645 77.214073,176.766113 
	C77.077919,173.405151 78.386940,170.576157 82.255714,170.815689 
	C86.054100,171.050827 86.874390,173.867096 86.684166,177.293610 
	C85.976921,190.033081 88.697723,202.052658 94.622757,213.337585 
	C96.169273,216.283096 96.962524,219.213135 93.322327,220.960464 
	C89.840446,222.631760 87.483170,220.542877 86.298264,217.451889 
	C83.573013,210.342743 81.100899,203.136536 78.431297,195.554565 
z"/>
<path fill="#499DFA" opacity="1.000000" stroke="none" 
	d="
M180.911804,248.890930 
	C192.909317,242.480087 202.428421,233.955627 209.038422,222.372284 
	C210.749298,219.374161 213.137863,217.688217 216.368408,219.636917 
	C219.444244,221.492294 218.847687,224.291122 217.249084,227.032364 
	C209.774582,239.849472 199.390686,249.658905 186.230057,256.374359 
	C184.562576,257.225189 181.810547,255.950607 179.560989,255.660721 
	C179.908188,253.465683 180.255402,251.270630 180.911804,248.890930 
z"/>
<path fill="#4C9EFA" opacity="1.000000" stroke="none" 
	d="
M142.867371,137.302780 
	C145.028473,137.941879 146.923965,138.889206 148.696106,138.697311 
	C161.345413,137.327759 172.387634,141.064743 182.002762,149.079376 
	C183.449966,150.285675 185.031937,153.676361 184.406235,154.594330 
	C182.324738,157.648148 180.456329,154.668671 178.843521,153.325668 
	C170.807922,146.634293 161.626648,143.511505 151.172684,143.909927 
	C148.586197,144.008514 146.940201,144.537811 146.014618,147.383987 
	C144.558929,151.860229 141.097473,153.564484 136.325821,153.521088 
	C130.896362,153.471695 129.048569,149.527069 127.554390,145.722855 
	C126.059044,141.915619 133.510315,135.195648 138.297974,135.741516 
	C139.745728,135.906601 141.130859,136.620941 142.867371,137.302780 
M141.039185,145.427124 
	C139.843857,143.964127 138.648529,142.501144 137.453201,141.038177 
	C136.366043,141.927444 134.673279,142.648315 134.365692,143.754379 
	C134.070908,144.814346 135.136169,147.313324 135.740051,147.358551 
	C137.386566,147.481812 139.105087,146.643066 141.039185,145.427124 
z"/>
<path fill="#4D9EFA" opacity="1.000000" stroke="none" 
	d="
M180.723663,221.818146 
	C178.275024,230.205811 172.915451,232.304184 165.955276,228.191330 
	C164.536789,227.353149 162.642166,227.179169 160.935181,226.996155 
	C154.701172,226.327866 148.414215,226.025848 142.241043,225.013580 
	C140.829636,224.782135 139.793060,222.264786 138.583969,220.799500 
	C140.342789,220.529388 142.139465,219.888779 143.852783,220.063889 
	C147.800507,220.467407 151.687881,221.531677 155.637253,221.828430 
	C159.249283,222.099854 162.527008,221.935379 164.090836,217.136475 
	C165.242554,213.602158 168.849640,211.578293 173.033966,212.437469 
	C177.849899,213.426376 180.554779,216.394379 180.723663,221.818146 
M174.835693,222.970367 
	C174.213135,221.332123 173.876236,219.447495 172.800385,218.200241 
	C172.461304,217.807129 169.708206,218.764618 168.874649,219.775665 
	C168.275131,220.502838 168.715805,223.340500 169.234985,223.502945 
	C170.814072,223.997086 172.656357,223.650162 174.835693,222.970367 
z"/>
<path fill="#4E9FF9" opacity="1.000000" stroke="none" 
	d="
M115.761429,159.803589 
	C117.874779,156.991821 119.564903,154.249664 121.816727,152.094360 
	C123.152344,150.815994 125.373779,150.463089 127.196922,149.694077 
	C127.501335,150.076813 127.805756,150.459534 128.110168,150.842255 
	C127.024040,152.760757 126.007431,154.722885 124.836594,156.588211 
	C122.724579,159.952988 120.323608,163.151611 118.413216,166.623169 
	C116.709717,169.718796 116.016426,172.613327 119.106689,175.969543 
	C122.439560,179.589279 121.213379,184.843903 117.383987,187.859268 
	C113.743500,190.725922 108.804619,190.477951 105.537811,187.264496 
	C102.328125,184.107269 101.509865,177.298340 105.248550,175.204727 
	C111.534996,171.684418 112.454865,165.325562 115.761429,159.803589 
M113.611130,177.784882 
	C111.917603,178.480789 110.058640,178.958054 108.646797,180.026260 
	C108.293503,180.293579 109.042282,183.199844 109.882202,183.582962 
	C111.122665,184.148758 113.964195,183.984375 114.230019,183.344330 
	C114.835457,181.886551 114.289032,179.950378 113.611130,177.784882 
z"/>
<path fill="#4F9FFA" opacity="1.000000" stroke="none" 
	d="
M126.762886,210.238770 
	C128.552353,212.627594 133.762207,213.697571 130.714523,217.137863 
	C127.553345,220.706268 124.903526,216.295349 123.257927,214.242249 
	C119.358894,209.377670 115.957207,204.075638 112.791649,198.693314 
	C112.123428,197.557144 113.326027,195.320663 113.666618,193.591171 
	C115.055695,194.645218 116.798943,195.445770 117.768303,196.800201 
	C120.835480,201.085815 123.613243,205.578537 126.762886,210.238770 
z"/>
<path fill="#F5FAFA" opacity="1.000000" stroke="none" 
	d="
M156.189056,101.890511 
	C160.674881,101.873764 163.028885,103.923103 162.410355,108.014626 
	C161.916534,111.281105 159.291885,112.960098 156.117569,111.985527 
	C154.529938,111.498100 152.159805,109.273392 152.340317,108.205925 
	C152.714966,105.990471 154.555756,104.022942 156.189056,101.890511 
z"/>
<path fill="#F3F9FB" opacity="1.000000" stroke="none" 
	d="
M220.732437,177.878052 
	C219.929092,181.944611 217.387680,183.528214 213.890533,183.675446 
	C210.433609,183.820969 206.965775,183.707230 203.139008,183.707230 
	C203.139008,179.423965 203.139008,175.558624 203.139008,171.725128 
	C215.563278,170.224564 220.009048,171.078644 220.732437,177.878052 
z"/>
<path fill="#F0F8FA" opacity="1.000000" stroke="none" 
	d="
M95.093849,145.932327 
	C96.623344,149.824310 95.161713,152.561142 91.865990,153.170883 
	C89.988991,153.518173 86.659813,152.119202 85.875687,150.557205 
	C85.088936,148.990021 85.947769,145.513412 87.338089,144.172653 
	C89.869270,141.731720 92.849312,142.618759 95.093849,145.932327 
z"/>
<path fill="#F2F8F9" opacity="1.000000" stroke="none" 
	d="
M156.481461,250.193130 
	C159.698822,252.563980 160.447098,255.633713 158.101364,258.080048 
	C156.802582,259.434570 153.392990,260.032623 151.645325,259.292969 
	C150.215347,258.687775 148.920517,255.463211 149.186752,253.636063 
	C149.716980,249.997299 152.750534,249.278320 156.481461,250.193130 
z"/>
<path fill="#F3F9FC" opacity="1.000000" stroke="none" 
	d="
M258.225891,182.688721 
	C258.209595,181.896255 258.178101,181.560486 258.211426,181.231277 
	C258.537628,178.008118 258.219299,172.301956 259.326385,172.009872 
	C263.317841,170.956802 267.996674,170.994370 271.995087,172.117783 
	C274.010986,172.684174 276.444031,176.571411 276.272278,178.768112 
	C276.100220,180.968384 273.259125,184.036316 270.976105,184.740479 
	C267.630676,185.772339 263.736420,185.129395 260.086090,184.969849 
	C259.445679,184.941864 258.854584,183.784332 258.225891,182.688721 
z"/>
<path fill="#F0F8FA" opacity="1.000000" stroke="none" 
	d="
M140.917130,145.806305 
	C139.105087,146.643066 137.386566,147.481812 135.740051,147.358551 
	C135.136169,147.313324 134.070908,144.814346 134.365692,143.754379 
	C134.673279,142.648315 136.366043,141.927444 137.453201,141.038177 
	C138.648529,142.501144 139.843857,143.964127 140.917130,145.806305 
z"/>
<path fill="#F0F8FA" opacity="1.000000" stroke="none" 
	d="
M174.615921,223.300537 
	C172.656357,223.650162 170.814072,223.997086 169.234985,223.502945 
	C168.715805,223.340500 168.275131,220.502838 168.874649,219.775665 
	C169.708206,218.764618 172.461304,217.807129 172.800385,218.200241 
	C173.876236,219.447495 174.213135,221.332123 174.615921,223.300537 
z"/>
<path fill="#E8F3FA" opacity="1.000000" stroke="none" 
	d="
M113.910904,177.996735 
	C114.289032,179.950378 114.835457,181.886551 114.230019,183.344330 
	C113.964195,183.984375 111.122665,184.148758 109.882202,183.582962 
	C109.042282,183.199844 108.293503,180.293579 108.646797,180.026260 
	C110.058640,178.958054 111.917603,178.480789 113.910904,177.996735 
z"/>
</svg>