<svg xmlns="http://www.w3.org/2000/svg" xmlns:xlink="http://www.w3.org/1999/xlink" width="852" height="707" viewBox="0 0 852 707">
  <defs>
    <clipPath id="clip-Web_1920_1">
      <rect width="852" height="707"/>
    </clipPath>
  </defs>
  <g id="Web_1920_1" data-name="Web 1920 – 1" clip-path="url(#clip-Web_1920_1)">
    <rect width="852" height="707" fill="none"/>
    <g id="Group_7" data-name="Group 7" transform="translate(0 21)">
      <g id="undraw_Weather_app_re_kcb1" transform="matrix(0.819, 0.574, -0.574, 0.819, 258.484, -299.698)" style="isolation: isolate">
        <path id="Path_90" data-name="Path 90" d="M691.678,684.12H410.284c-60.707,0-110.1-50.22-110.1-111.949s49.389-111.949,110.1-111.949H430.3A136.511,136.511,0,0,1,479.365,405.3a133.02,133.02,0,0,1,71.617-20.95c70.405,0,129.089,55.364,134.55,126.452h6.147c47.039,0,85.308,38.875,85.308,86.658S738.718,684.12,691.678,684.12Zm-281.4-219.182c-58.107,0-105.381,48.1-105.381,107.234s47.274,107.234,105.381,107.234h281.4c44.439,0,80.593-36.759,80.593-81.943s-36.154-81.943-80.593-81.943H681.113l-.135-2.214c-4.248-69.666-61.349-124.237-130-124.237-49.432,0-95.387,29.256-117.077,74.531l-.641,1.339Z" transform="translate(-170.444 -133.66)" fill="#d5ebff"/>
      </g>
      <g id="undraw_fashion_blogging_w9ol" transform="translate(43.997 47.74)">
        <rect id="Rectangle_6" data-name="Rectangle 6" width="509.093" height="30.303" transform="translate(130.775 138.562)" fill="#3f3d56"/>
        <path id="Path_91" data-name="Path 91" d="M166.5,557.413a13.133,13.133,0,0,0,13.133,13.133H662.459a13.133,13.133,0,0,0,13.133-13.133V296H166.5Z" transform="translate(-35.725 -142.286)" fill="#45b9fd" opacity="0.98"/>
        <path id="Path_92" data-name="Path 92" d="M662.459,236H179.633A13.133,13.133,0,0,0,166.5,249.133v23.23H675.593v-23.23A13.133,13.133,0,0,0,662.459,236Z" transform="translate(-35.725 -118.65)" fill="#3f3d56"/>
        <path id="Path_93" data-name="Path 93" d="M667.864,236H179.776c-7.332,0-13.276,8.33-13.277,18.606v32.91H681.141v-32.91c0-10.276-5.944-18.606-13.276-18.606Z" transform="translate(-40.497 -120.5)" fill="#8888de"/>
        <circle id="Ellipse_13" data-name="Ellipse 13" cx="7.879" cy="7.879" r="7.879" transform="translate(560.23 133.204)" fill="#fff"/>
        <circle id="Ellipse_14" data-name="Ellipse 14" cx="7.879" cy="7.879" r="7.879" transform="translate(582.049 133.204)" fill="#fff"/>
        <circle id="Ellipse_15" data-name="Ellipse 15" cx="7.879" cy="7.879" r="7.879" transform="translate(603.867 133.204)" fill="#fff"/>
        <text id="ERP" transform="translate(244.003 364.26)" fill="#fff" font-size="166" font-family="Poppins-Bold, Poppins" font-weight="700"><tspan x="0" y="0">ERP</tspan></text>
      </g>
      <g id="undraw_project_team_lc5a" transform="translate(157.541 320.743)">
        <path id="Path_203" data-name="Path 203" d="M887.924,564.107c0-5.832-21.951-10.56-49.03-10.56s-49.03,4.728-49.03,10.56c0,3.738,9.025,7.02,22.629,8.9v57.859a4.9,4.9,0,0,0,9.806,0V574.046c5.184.4,10.769.622,16.595.622s11.411-.22,16.595-.622v56.817a4.9,4.9,0,0,0,9.806,0V573C878.9,571.127,887.924,567.845,887.924,564.107Z" transform="translate(-219.808 -282.214)" fill="#ccc"/>
        <circle id="Ellipse_30" data-name="Ellipse 30" cx="21.12" cy="21.12" r="21.12" transform="translate(603.388 142.993)" fill="#2f2e41"/>
        <path id="Path_204" data-name="Path 204" d="M581.46,403.415h-9.248l-4.4-35.669h13.648Z" transform="translate(-9.512 -58.596)" fill="#a0616a"/>
        <path id="Path_205" data-name="Path 205" d="M561.23,411.531h17.835V422.76H550A11.229,11.229,0,0,1,561.23,411.531Z" transform="translate(-5.135 -69.354)" fill="#0742a2"/>
        <path id="Path_206" data-name="Path 206" d="M563.894,395.775l-8.824-2.769,6.481-35.35,13.022,4.086Z" transform="translate(-6.381 -56.117)" fill="#a0616a"/>
        <path id="Path_207" data-name="Path 207" d="M11.229,0H29.064V11.229H0A11.229,11.229,0,0,1,11.229,0Z" transform="translate(532.462 329.028) rotate(17.423)" fill="#0742a2"/>
        <path id="Path_208" data-name="Path 208" d="M773.9,600.968a3.364,3.364,0,0,1-1.186-.216l-6.8-2.551a3.406,3.406,0,0,1-2.123-3.91c1.713-7.7,7.55-33.921,10.747-47.985,3.791-16.682,59.094-19.781,61.446-19.905l.193-.01,6.221,7.818c2.248,7.226,1.536,12.861-2.118,16.752-10.66,11.35-42.488,4.307-46.283,3.416l-16.917,44.407a3.4,3.4,0,0,1-3.178,2.185Z" transform="translate(-213.383 -275.542)" fill="#0048af"/>
        <path id="Path_209" data-name="Path 209" d="M786.9,607.968a3.364,3.364,0,0,1-1.186-.216l-6.8-2.551a3.406,3.406,0,0,1-2.123-3.91c1.713-7.7,7.55-33.922,10.747-47.985,3.791-16.682,59.094-19.781,61.446-19.905l.193-.01,6.221,7.818c2.248,7.226,1.536,12.861-2.118,16.752-10.66,11.349-42.488,4.307-46.283,3.416l-16.917,44.407A3.4,3.4,0,0,1,786.9,607.968Z" transform="translate(-216.577 -277.262)" fill="#0048af"/>
        <path id="Path_210" data-name="Path 210" d="M759.494,487.219a7.941,7.941,0,0,1,.668,1.057l37.2,3.92,5.355-7.342,12.137,6.634-10.518,17.818-45.626-11.633a7.917,7.917,0,1,1,.782-10.452Z" transform="translate(-208.851 -265.148)" fill="#a0616a"/>
        <path id="Path_211" data-name="Path 211" d="M865.738,523.742a3.4,3.4,0,0,1-1.546-.378c-7.439-3.783-21.925-10.333-35.357-11.7a3.313,3.313,0,0,1-2.335-1.32,3.408,3.408,0,0,1-.629-2.648c1.212-6.71,3.993-23.8,3.634-37.49a18.553,18.553,0,0,1,14.016-18.456h0A60.232,60.232,0,0,1,851,450.273a18.7,18.7,0,0,1,20.788,21.7c-2.4,14.191-4.81,34.011-2.711,47.847a3.4,3.4,0,0,1-1.372,3.28,3.341,3.341,0,0,1-1.966.647Z" transform="translate(-228.641 -256.804)" fill="#ffcd2f"/>
        <path id="Path_212" data-name="Path 212" d="M827.357,489.618a3.392,3.392,0,0,1-1.348-.281l-9.691-4.2a3.4,3.4,0,0,1-1.766-4.463l7.491-17.305a8.674,8.674,0,0,1,15.921,6.891l-7.491,17.305a3.4,3.4,0,0,1-3.116,2.049Z" transform="translate(-225.805 -258.774)" fill="#ffcd2f"/>
        <circle id="Ellipse_31" data-name="Ellipse 31" cx="18.526" cy="18.526" r="18.526" transform="translate(605.21 150.529)" fill="#f4dabb"/>
        <path id="Path_213" data-name="Path 213" d="M836.026,401.721a66.824,66.824,0,0,0,28.909,9.526l-3.047-3.651a22.4,22.4,0,0,0,6.917,1.374,7.576,7.576,0,0,0,6.175-2.89,7.047,7.047,0,0,0,.472-6.509,13.347,13.347,0,0,0-4.2-5.25,25,25,0,0,0-23.266-4.158,14.94,14.94,0,0,0-6.949,4.458c-1.756,2.167-5.138,4.1-4.238,6.737Z" transform="translate(-231.15 -241.767)" fill="#0047a5"/>
        <path id="Path_214" data-name="Path 214" d="M843.251,380.938a56.939,56.939,0,0,0-20.715-13.4c-5.008-1.855-10.458-3-15.693-1.948s-10.186,4.675-11.647,9.812c-1.194,4.2.039,8.723,1.892,12.676s4.328,7.62,5.827,11.722a26.753,26.753,0,0,1-26.92,35.876c5.144.69,9.885,3.107,14.913,4.394s10.962,1.2,14.7-2.4c3.953-3.811,4.032-10.007,3.841-15.5q-.426-12.237-.852-24.473c-.145-4.16-.269-8.454,1.232-12.337s5.066-7.283,9.229-7.248c3.155.027,5.947,1.938,8.477,3.823s5.208,3.9,8.351,4.176,6.731-2.045,6.5-5.191" transform="translate(-216.4 -235.936)" fill="#0047a5"/>
        <path id="Path_215" data-name="Path 215" d="M817.035,528.333a8.3,8.3,0,1,1,3.2-15.964h0a7.977,7.977,0,0,1,.989.5l33.748-15.152.948-9.153,14.547-.389-.1,15.238a8.207,8.207,0,0,1-5.93,7.8L824.975,522.45a7.743,7.743,0,0,1-.271.769,8.331,8.331,0,0,1-7.669,5.114Z" transform="translate(-224.446 -266.153)" fill="#a0616a"/>
        <path id="Path_216" data-name="Path 216" d="M883.519,488.243a3.392,3.392,0,0,1-1.329.359l-10.54.648a3.4,3.4,0,0,1-3.6-3.179L866.9,467.249a8.674,8.674,0,0,1,17.316-1.065l1.157,18.822a3.4,3.4,0,0,1-1.851,3.237Z" transform="translate(-238.73 -258.749)" fill="#ffcd2f"/>
        <path id="Path_217" data-name="Path 217" d="M2.64,0H62.23a2.64,2.64,0,0,1,2.64,2.64h0a2.64,2.64,0,0,1-2.64,2.64H2.64A2.64,2.64,0,0,1,0,2.64H0A2.64,2.64,0,0,1,2.64,0Z" transform="translate(624.521 264.083) rotate(180)" fill="#3f3d56"/>
        <path id="Path_218" data-name="Path 218" d="M745.07,523.8V486.839a4.909,4.909,0,0,1,4.9-4.9h67.133a4.909,4.909,0,0,1,4.9,4.9V523.8a4.909,4.909,0,0,1-4.9,4.9H749.973a4.909,4.909,0,0,1-4.9-4.9Z" transform="translate(-208.802 -264.62)" fill="#d9effc"/>
        <circle id="Ellipse_32" data-name="Ellipse 32" cx="4.526" cy="4.526" r="4.526" transform="translate(570.212 236.174)" fill="#fff"/>
      </g>
      <g id="undraw_Progress_data_re_rv4p" transform="translate(127.838 150.433)">
        <path id="Path_421" data-name="Path 421" d="M332.035,236.4h-166.1V163.66h166.1Z" transform="translate(-165.934 -163.66)" fill="#fff" stroke="#d5ebff" stroke-width="1"/>
        <path id="Path_422" data-name="Path 422" d="M332.035,236.4h-166.1V163.66h166.1Zm-164.495-1.607H330.429V165.267H167.541Z" transform="translate(-165.934 -163.66)" fill="#e5e5e5"/>
        <path id="Path_423" data-name="Path 423" d="M134.755,88.047l-28.518-21.36L78.109,87.754l-.644-.859,28.772-21.55L134.619,86.6l28.2-30.864.113-.046,28.45-11.463.4,1L163.451,56.643Z" transform="translate(-51.636 -29.483)" fill="#3f3d56"/>
        <circle id="Ellipse_136" data-name="Ellipse 136" cx="3.221" cy="3.221" r="3.221" transform="translate(22.93 54.621)" fill="#6c63ff"/>
        <circle id="Ellipse_137" data-name="Ellipse 137" cx="3.221" cy="3.221" r="3.221" transform="translate(51.38 33.687)" fill="#6c63ff"/>
        <circle id="Ellipse_138" data-name="Ellipse 138" cx="3.221" cy="3.221" r="3.221" transform="translate(79.83 54.621)" fill="#6c63ff"/>
        <circle id="Ellipse_139" data-name="Ellipse 139" cx="3.221" cy="3.221" r="3.221" transform="translate(108.28 23.487)" fill="#6c63ff"/>
        <circle id="Ellipse_140" data-name="Ellipse 140" cx="3.221" cy="3.221" r="3.221" transform="translate(136.73 11.678)" fill="#6c63ff"/>
      </g>
      <rect id="Rectangle_46" data-name="Rectangle 46" width="164" height="104" transform="translate(606 344)" fill="#0045a2"/>
      <g id="Group_1" data-name="Group 1" transform="translate(-939 61)">
        <rect id="Rectangle_47" data-name="Rectangle 47" width="9" height="79" transform="translate(1672 296)" fill="#fcce48"/>
        <rect id="Rectangle_48" data-name="Rectangle 48" width="9" height="79" transform="translate(1690 296)" fill="#fff"/>
        <rect id="Rectangle_49" data-name="Rectangle 49" width="9" height="40" transform="translate(1633 335)" fill="#fcce48"/>
        <rect id="Rectangle_50" data-name="Rectangle 50" width="9" height="60" transform="translate(1613 314)" fill="#fff"/>
        <rect id="Rectangle_55" data-name="Rectangle 55" width="9" height="70" transform="translate(1653 305)" fill="#fff"/>
        <rect id="Rectangle_52" data-name="Rectangle 52" width="9" height="40" transform="translate(1573 334)" fill="#fff"/>
        <rect id="Rectangle_53" data-name="Rectangle 53" width="9" height="20" transform="translate(1553 355)" fill="#fcce48"/>
        <rect id="Rectangle_54" data-name="Rectangle 54" width="9" height="20" transform="translate(1593 354)" fill="#fcce48"/>
      </g>
      <g id="undraw_icons_wdp4" transform="translate(68.032 333.115)">
        <circle id="Ellipse_23" data-name="Ellipse 23" cx="15.14" cy="15.14" r="15.14" transform="translate(50.961 108.289)" fill="#ffb8b8"/>
        <path id="Path_126" data-name="Path 126" d="M315.346,455.911q-.286,0-.575-.025a6.782,6.782,0,0,1-6.087-8.085,6.347,6.347,0,0,1,.166-.645L286.5,420.727a5.267,5.267,0,0,1-.366-6.278l.041-.049,20.114-19.833a5.814,5.814,0,1,1,8.088,8.355L299.813,416.77l15.948,25.6a6.452,6.452,0,0,1,.9.111,6.782,6.782,0,0,1-1.315,13.433Z" transform="translate(-254.712 -242.895)" fill="#ffb8b8"/>
        <path id="Path_127" data-name="Path 127" d="M139.327,446.238h7.558l3.595-29.15H139.326Z" transform="translate(-48.291 -112.094)" fill="#ffb8b8"/>
        <path id="Path_128" data-name="Path 128" d="M374.878,670.925h14.884a9.485,9.485,0,0,1,9.485,9.485v.308H374.878Z" transform="translate(-285.769 -339.248)" fill="#0742a2"/>
        <path id="Path_129" data-name="Path 129" d="M24.366,432.424l6.493,3.866,18-23.207-9.584-5.706Z" transform="translate(-8.445 -108.729)" fill="#ffb8b8"/>
        <path id="Path_130" data-name="Path 130" d="M259.605,653.956l12.788,7.614h0a9.484,9.484,0,0,1,3.3,13l-.158.265L254.6,662.371Z" transform="translate(-244.079 -333.367)" fill="#0742a2"/>
        <path id="Path_131" data-name="Path 131" d="M349.592,585.212h-8.463a2.769,2.769,0,0,1-2.758-2.481l-8.532-80.2a.925.925,0,0,0-1.762-.283l-15.391,34.08-27.249,44.433a2.787,2.787,0,0,1-3.482,1.088l-10.886-4.789a2.775,2.775,0,0,1-1.264-3.962l25.049-41.943,7.682-35.339c-2.416-15.325,7.942-38.11,8.047-38.339l.051-.111,28.532-11.152.143.175c11.252,36.926,18.109,76.664,13.046,136.278a2.793,2.793,0,0,1-2.765,2.542Z" transform="translate(-249.214 -261.364)" fill="#0048af"/>
        <path id="Path_132" data-name="Path 132" d="M324.084,439.269l-.133-.279c-.064-.134-6.408-13.515-11.3-27.816a21.1,21.1,0,0,1,1.463-16.906,21.325,21.325,0,0,1,13.6-10.457h0A21.351,21.351,0,0,1,352.5,396.6c3.879,9.7,2.643,20.056,1.479,28.2l-.023.163-.148.071Z" transform="translate(-263.813 -239.529)" fill="#ffcd2f"/>
        <path id="Path_133" data-name="Path 133" d="M355.007,332.347H330.966V321.868c5.277-2.1,10.44-3.879,13.562,0a10.48,10.48,0,0,1,10.479,10.479Z" transform="translate(-270.549 -217.471)" fill="#2f2e41"/>
        <path id="Path_134" data-name="Path 134" d="M319.171,320.252c-14.372,0-18.395,18.015-18.395,28.178,0,5.668,2.563,7.7,6.591,8.381l1.422-7.587,3.332,7.913c1.131.006,2.32-.016,3.552-.039l1.13-2.326,2.519,2.284c10.089.015,18.243,1.486,18.243-8.627C337.566,338.267,334.038,320.252,319.171,320.252Z" transform="translate(-260.085 -217.704)" fill="#2f2e41"/>
        <path id="Path_135" data-name="Path 135" d="M398.275,349.241q.137.251.253.516a6.782,6.782,0,0,1-4.177,9.218,6.354,6.354,0,0,1-.646.163L381.227,391.42a5.267,5.267,0,0,1-5.334,3.332l-.063-.012L348.782,386.6a5.814,5.814,0,1,1,3.454-11.1l19.138,6.145,14.817-26.268a6.447,6.447,0,0,1-.334-.843,6.782,6.782,0,0,1,12.419-5.287Z" transform="translate(-275.307 -226.532)" fill="#ffb8b8"/>
        <path id="Path_139" data-name="Path 139" d="M594.786,445.138h-8.01l-3.811-30.9h11.823Z" transform="translate(-202.058 -111.107)" fill="#a0616a"/>
        <path id="Path_140" data-name="Path 140" d="M574.88,458.025h15.449v9.727H565.154A9.727,9.727,0,0,1,574.88,458.025Z" transform="translate(-195.884 -126.283)" fill="#0742a2"/>
        <path id="Path_141" data-name="Path 141" d="M675.131,415.516l-5.918,5.4-23.64-20.257,8.735-7.968Z" transform="translate(-223.758 -103.638)" fill="#a0616a"/>
        <path id="Path_142" data-name="Path 142" d="M9.727,0H25.176V9.727H0A9.727,9.727,0,0,1,9.727,0Z" transform="matrix(0.739, -0.674, 0.674, 0.739, 432.496, 326)" fill="#0742a2"/>
        <path id="Path_143" data-name="Path 143" d="M822.106,602.074a2.923,2.923,0,0,1-2.9-2.52l-6.98-48.279a28.034,28.034,0,0,1-.1-7.266l6.8-58.136,43.45,3.648-6.558,55.085,24.807,30.932a2.933,2.933,0,0,1-.363,4.057l-6.246,5.44a2.94,2.94,0,0,1-4.166-.307l-23.506-27.506a36.942,36.942,0,0,1-7.657-14.742l-3.356-13.087a.98.98,0,0,0-1.875-.077l-4.439,12.822,2.808,56.474a2.947,2.947,0,0,1-2.773,3.082l-6.777.376Q822.19,602.074,822.106,602.074Z" transform="translate(-437.254 -275.109)" fill="#0048af"/>
        <circle id="Ellipse_24" data-name="Ellipse 24" cx="16.048" cy="16.048" r="16.048" transform="translate(392.948 100.109)" fill="#a0616a"/>
        <path id="Path_144" data-name="Path 144" d="M721.492,364.7a6.57,6.57,0,0,0,9.672,2.822l21.042,12.748-1.635-10.781-17.81-11.51a6.606,6.606,0,0,0-11.268,6.721Z" transform="translate(-405.708 -229.888)" fill="#ffb8b8"/>
        <path id="Path_145" data-name="Path 145" d="M848.466,457.648h0c-8.523,0-17.393-2.644-26.363-7.86a3.261,3.261,0,0,1-1.418-3.963l8.343-22.481-1.9-26.489a22.988,22.988,0,0,1,11.444-21.79A20.643,20.643,0,0,1,856.583,374a22.2,22.2,0,0,1,12.791,14.577l2.678,9.318a57.165,57.165,0,0,1-1.07,34.7l-7.759,21.785-.2.12C862.969,454.527,857.644,457.647,848.466,457.648Z" transform="translate(-440.216 -235.787)" fill="#ffcd2f"/>
        <path id="Path_146" data-name="Path 146" d="M738.555,375.275a3.265,3.265,0,0,1,.035-3.668l4.066-5.873a3.272,3.272,0,0,1,4.193-1.039L777,380.378l33.271-3.335a9.241,9.241,0,1,1,1.016,18.435l-31.026.315a19.083,19.083,0,0,1-9.35-2.345L739.7,376.332A3.28,3.28,0,0,1,738.555,375.275Z" transform="translate(-411.631 -232.981)" fill="#ffcd2f"/>
        <path id="Path_147" data-name="Path 147" d="M879.93,508.053a6.571,6.571,0,0,0,.3-10.07l7.836-21.572L877.262,478.7l-6.668,20.13a6.606,6.606,0,0,0,9.336,9.219Z" transform="translate(-457.104 -271.829)" fill="#ffb8b8"/>
        <path id="Path_148" data-name="Path 148" d="M882.369,461.4a3.245,3.245,0,0,1-1.122-.2l-6.706-2.461a3.272,3.272,0,0,1-2.059-3.8l7.606-33.127L868.5,390.446a9.24,9.24,0,1,1,17.588-5.613l8.1,29.953a19.083,19.083,0,0,1,.079,9.639l-8.728,34.508a3.265,3.265,0,0,1-3.167,2.466h0Z" transform="translate(-456.667 -237.721)" fill="#ffcd2f"/>
        <path id="Path_149" data-name="Path 149" d="M857.2,340.481c.814-3.377,1.216-5.273,2.022-8.651.54-2.263-1.089-4.58-3.133-5.637s-4.414-1.179-6.7-1.4-4.68-.623-6.46-2.092a7.617,7.617,0,0,1-1.9-8.536,9.706,9.706,0,0,1,6.976-5.578,13.854,13.854,0,0,1,8.969,1.381c1.077-2.531,4.2-3.631,6.881-3.19s5.011,2.069,7.191,3.715c4.054,3.06,8.213,6.77,9.113,11.815.869,4.872-1.6,9.789-4.908,13.43a29.719,29.719,0,0,1-17.173,9.319A6.083,6.083,0,0,1,857.2,340.481Z" transform="translate(-447.146 -213)"/>
      </g>
      <g id="Group_2" data-name="Group 2" transform="translate(802 -1534.499)">
        <g id="undraw_Analytics_re_dkf8" transform="translate(-410.633 1572.499)">
          <path id="Path_283" data-name="Path 283" d="M482.392,258.039H617.421a9.7,9.7,0,0,0,9.7-9.7V155.3a9.7,9.7,0,0,0-9.7-9.7H482.392a9.7,9.7,0,0,0-9.7,9.7v93.043A9.7,9.7,0,0,0,482.392,258.039Z" transform="translate(-472.697 -145.606)" fill="#48bafd"/>
          <path id="Path_285" data-name="Path 285" d="M499.857,211.434h-6.687a1.369,1.369,0,0,1-1.368-1.368v-6.687a1.369,1.369,0,0,1,1.368-1.368h6.687a1.369,1.369,0,0,1,1.368,1.368v6.687a1.369,1.369,0,0,1-1.368,1.368Z" transform="translate(-480.225 -167.833)" fill="#fff"/>
          <path id="Path_286" data-name="Path 286" d="M499.857,240.028h-6.687a1.369,1.369,0,0,1-1.368-1.368v-6.687a1.369,1.369,0,0,1,1.368-1.368h6.687a1.369,1.369,0,0,1,1.368,1.368v6.687A1.369,1.369,0,0,1,499.857,240.028Z" transform="translate(-480.225 -179.1)" fill="#fff"/>
          <path id="Path_287" data-name="Path 287" d="M499.857,268.621h-6.687a1.369,1.369,0,0,1-1.368-1.368v-6.687a1.369,1.369,0,0,1,1.368-1.368h6.687a1.369,1.369,0,0,1,1.368,1.368v6.687A1.369,1.369,0,0,1,499.857,268.621Z" transform="translate(-480.225 -190.367)" fill="#fff"/>
          <path id="Path_288" data-name="Path 288" d="M555.488,210.265H523.267a1.368,1.368,0,1,1,0-2.736h32.221a1.368,1.368,0,1,1,0,2.736Z" transform="translate(-492.085 -170.007)" fill="#fffbfb"/>
          <path id="Path_289" data-name="Path 289" d="M555.488,238.859H523.267a1.368,1.368,0,1,1,0-2.736h32.221a1.368,1.368,0,1,1,0,2.736Z" transform="translate(-492.085 -181.274)" fill="#fff"/>
          <path id="Path_290" data-name="Path 290" d="M555.488,267.452H523.267a1.368,1.368,0,0,1,0-2.736h32.221a1.368,1.368,0,1,1,0,2.736Z" transform="translate(-492.085 -192.541)" fill="#fff"/>
          <path id="Path_291" data-name="Path 291" d="M689.731,219.322c.034-.575.054-1.154.054-1.738a28.672,28.672,0,0,0-28.672-28.672v30.41Z" transform="translate(-546.942 -162.671)" fill="#6c63ff"/>
          <path id="Path_292" data-name="Path 292" d="M638.882,223.623v-30.41a28.672,28.672,0,1,0,28.618,30.41Z" transform="translate(-526.883 -164.365)" fill="#3838dc"/>
        </g>
      </g>
      <path id="Path_466" data-name="Path 466" d="M638.882,223.623v-30.41a28.672,28.672,0,1,0,28.618,30.41Z" transform="translate(102.484 59.442)" fill="#48bafd"/>
      <path id="Path_465" data-name="Path 465" d="M689.731,219.322c.034-.575.054-1.154.054-1.738a28.672,28.672,0,0,0-28.672-28.672v30.41Z" transform="translate(82.425 61.137)" fill="#ffcd2f"/>
      <g id="noun_Settings_4053119" transform="translate(920 -20)" opacity="0.49">
        <g id="Group_3" data-name="Group 3" transform="translate(-863 345)">
          <path id="Path_467" data-name="Path 467" d="M75.819,30.623l-4.134-.237a32.49,32.49,0,0,0-2.022-4.844l2.795-3.04a5.391,5.391,0,0,0-.153-7.478L65.973,8.693A5.391,5.391,0,0,0,58.5,8.54L55.39,11.293A32.477,32.477,0,0,0,50.543,9.3l-.166-4.126A5.388,5.388,0,0,0,44.982,0H36.017a5.389,5.389,0,0,0-5.395,5.181l-.237,4.134a32.584,32.584,0,0,0-4.844,2.022L22.5,8.543a5.393,5.393,0,0,0-7.478.153L8.693,15.027A5.389,5.389,0,0,0,8.54,22.5l2.753,3.111A32.379,32.379,0,0,0,9.3,30.457l-4.126.166A5.388,5.388,0,0,0,0,36.018v8.965a5.389,5.389,0,0,0,5.181,5.395l4.134.237a32.584,32.584,0,0,0,2.022,4.844L8.543,58.5A5.391,5.391,0,0,0,8.7,65.976l6.331,6.331a5.387,5.387,0,0,0,7.472.153l3.111-2.753A32.479,32.479,0,0,0,30.457,71.7l.166,4.126A5.388,5.388,0,0,0,36.018,81h8.965a5.389,5.389,0,0,0,5.395-5.181l.237-4.134a32.585,32.585,0,0,0,4.844-2.022l3.04,2.795a5.385,5.385,0,0,0,7.478-.153l6.331-6.331A5.389,5.389,0,0,0,72.46,58.5L69.707,55.39A31.318,31.318,0,0,0,71.7,50.543l4.126-.166A5.388,5.388,0,0,0,81,44.982V36.017A5.389,5.389,0,0,0,75.819,30.623Zm-4.34,14.526c-4.358.011-5.03,4.683-6.586,7.8a5.406,5.406,0,0,0,.793,6.167l2.8,3.045-6.331,6.325-3.043-2.8c-3.095-3.067-6.874-.23-10.172.865a5.4,5.4,0,0,0-3.792,4.93L44.982,75.6l-8.965,0-.166-4.124a5.409,5.409,0,0,0-3.794-4.931c-3.3-1.085-7.04-3.935-10.17-.862l-3.045,2.8-6.325-6.331,2.8-3.043c3.067-3.088.23-6.876-.865-10.172a5.4,5.4,0,0,0-4.93-3.792L5.4,44.982l0-8.965,4.124-.166a5.409,5.409,0,0,0,4.931-3.794c1.094-3.287,3.922-7.093.862-10.17l-2.8-3.045,6.331-6.325,3.043,2.8c3.092,3.068,6.875.23,10.172-.865a5.4,5.4,0,0,0,3.792-4.93L36.018,5.4l8.965,0,.166,4.124a5.409,5.409,0,0,0,3.794,4.931c3.291,1.1,7.087,3.916,10.17.862l3.045-2.8,6.325,6.331-2.8,3.043a5.4,5.4,0,0,0-.794,6.165c1.553,3.118,2.236,7.788,6.589,7.8l4.118.166,0,8.965Z" fill="#48bafd"/>
          <path id="Path_468" data-name="Path 468" d="M27.6,8.422A19.182,19.182,0,1,0,46.786,27.6,19.205,19.205,0,0,0,27.6,8.422Zm0,32.964A13.782,13.782,0,1,1,41.386,27.6,13.8,13.8,0,0,1,27.6,41.386Z" transform="translate(12.896 12.896)" fill="#48bafd"/>
        </g>
      </g>
      <g id="noun_management_925176_1_" data-name="noun_management_925176 (1)" transform="translate(262.785 -3.114)">
        <g id="Group_5" data-name="Group 5">
          <path id="Path_469" data-name="Path 469" d="M18.376,80.841a8.963,8.963,0,1,0-8.963-8.963A8.973,8.973,0,0,0,18.376,80.841Zm0-15.226a6.263,6.263,0,1,1-6.263,6.263A6.271,6.271,0,0,1,18.376,65.615Z" fill="#a4ddfe"/>
          <path id="Path_470" data-name="Path 470" d="M7.785,92.886A7.32,7.32,0,0,1,15.1,85.574h6.559a7.32,7.32,0,0,1,7.312,7.312h3A10.324,10.324,0,0,0,21.656,82.574H15.1A10.323,10.323,0,0,0,4.785,92.886h3Z" fill="#a4ddfe"/>
          <path id="Path_471" data-name="Path 471" d="M58.963,71.878A8.963,8.963,0,1,0,50,80.841,8.973,8.973,0,0,0,58.963,71.878Zm-15.226,0A6.263,6.263,0,1,1,50,78.141,6.271,6.271,0,0,1,43.737,71.878Z" fill="#a4ddfe"/>
          <path id="Path_472" data-name="Path 472" d="M46.721,85.575H53.28a7.32,7.32,0,0,1,7.312,7.312h3A10.324,10.324,0,0,0,53.28,82.575H46.721A10.323,10.323,0,0,0,36.409,92.887h3A7.319,7.319,0,0,1,46.721,85.575Z" fill="#a4ddfe"/>
          <path id="Path_473" data-name="Path 473" d="M72.661,71.878a8.963,8.963,0,1,0,8.963-8.963A8.973,8.973,0,0,0,72.661,71.878Zm15.226,0a6.263,6.263,0,1,1-6.263-6.263A6.27,6.27,0,0,1,87.887,71.878Z" fill="#a4ddfe"/>
          <path id="Path_474" data-name="Path 474" d="M78.344,85.575H84.9a7.32,7.32,0,0,1,7.312,7.312h3A10.323,10.323,0,0,0,84.9,82.575H78.344A10.323,10.323,0,0,0,68.032,92.887h3A7.32,7.32,0,0,1,78.344,85.575Z" fill="#a4ddfe"/>
          <path id="Path_477" data-name="Path 477" d="M80.124,58.654h3v-9.7H51.5V41.668h-3v7.285H16.876v9.7h3v-6.7H48.5v6.7h3v-6.7H80.124Z" fill="#a4ddfe"/>
        </g>
      </g>
      <g id="noun_bar_chart_4061669" data-name="noun_bar chart_4061669" transform="translate(705.984 78.24)">
        <g id="Group_6" data-name="Group 6">
          <path id="Path_478" data-name="Path 478" d="M48.3,21.22v30.8a.965.965,0,0,0,.97.97h5.96a.965.965,0,0,0,.97-.97V21.22a.965.965,0,0,0-.97-.97H49.27A.977.977,0,0,0,48.3,21.22Zm1.94.97h4.02V51.05H50.24Z" fill="#a4ddfe"/>
          <path id="Path_479" data-name="Path 479" d="M35.94,34.78a.965.965,0,0,0-.97.97V52.03a.965.965,0,0,0,.97.97H41.9a.965.965,0,0,0,.97-.97V35.75a.965.965,0,0,0-.97-.97Zm4.99,16.27H36.91V36.71h4.02Z" fill="#a4ddfe"/>
          <path id="Path_480" data-name="Path 480" d="M22.79,24.99a.965.965,0,0,0-.97.97V52.02a.965.965,0,0,0,.97.97h5.96a.965.965,0,0,0,.97-.97V25.96a.965.965,0,0,0-.97-.97Zm4.99,26.06H23.76V26.93h4.02Z" fill="#a4ddfe"/>
          <path id="Path_481" data-name="Path 481" d="M10.03,39.28a.965.965,0,0,0-.97.97V52.02a.965.965,0,0,0,.97.97h5.96a.965.965,0,0,0,.97-.97V40.25a.965.965,0,0,0-.97-.97Zm4.99,11.77H11V41.22h4.02Z" fill="#a4ddfe"/>
          <path id="Path_482" data-name="Path 482" d="M63.03,55.95H1.94V7.08A.97.97,0,1,0,0,7.08V56.91a.965.965,0,0,0,.97.97H63.03a.965.965,0,1,0,0-1.93Z" fill="#a4ddfe"/>
          <path id="Path_483" data-name="Path 483" d="M8.68,31.3a3.261,3.261,0,0,0,3.26-3.26,3.123,3.123,0,0,0-.18-1.02l12.2-9.89a3.228,3.228,0,0,0,3.76-.09L35.85,23a3.311,3.311,0,0,0-.19,1.05A3.255,3.255,0,1,0,41.7,22.4L51.88,12.06l-.06,2.37a.978.978,0,0,0,.94,1h.03a.978.978,0,0,0,.97-.94l.13-4.82V9.65h0c0-.02-.01-.04-.01-.07a.978.978,0,0,0-.27-.63,1.254,1.254,0,0,0-.24-.16.435.435,0,0,0-.07-.04,1.108,1.108,0,0,0-.25-.05.5.5,0,0,0-.12-.02H52.9l-4.82.22a.966.966,0,0,0,.09,1.93l2.34-.11L40.27,21.09a3.195,3.195,0,0,0-3.27.34l-8.15-5.97a3.183,3.183,0,0,0,.18-1.03,3.255,3.255,0,1,0-6.51,0,3.3,3.3,0,0,0,.23,1.18L10.62,25.44a3.2,3.2,0,0,0-1.94-.66,3.26,3.26,0,0,0,0,6.52Zm29.15-7.99c.01-.01.03-.02.04-.03s.01-.02.02-.03a1.3,1.3,0,0,1,1.8-.26.1.1,0,0,0,.04.05,1.014,1.014,0,0,0,.13.09,1.321,1.321,0,1,1-2.26.93A1.332,1.332,0,0,1,37.83,23.31ZM25.78,13.12a1.32,1.32,0,0,1,1.1,2.05l-.03.03a.035.035,0,0,1-.01.02,1.32,1.32,0,0,1-1.05.54,1.293,1.293,0,0,1-1-.47c-.01-.01-.01-.03-.02-.04s-.03-.02-.04-.03a1.315,1.315,0,0,1,1.05-2.1ZM8.68,26.73a1.253,1.253,0,0,1,.82.3.921.921,0,0,0,.19.43.84.84,0,0,0,.24.18,1.41,1.41,0,0,1,.07.41,1.32,1.32,0,1,1-1.32-1.32Z" fill="#a4ddfe"/>
        </g>
      </g>
    </g>
    <line id="Line_1" data-name="Line 1" x2="821" transform="translate(16.5 695.5)" fill="none" stroke="#efefef" stroke-width="1"/>
  </g>
</svg>
